<?xml version="1.0" encoding="utf-8"?>
<!-- Generator: Adobe Illustrator 24.3.0, SVG Export Plug-In . SVG Version: 6.00 Build 0)  -->
<svg version="1.1" id="Layer_1" xmlns="http://www.w3.org/2000/svg" xmlns:xlink="http://www.w3.org/1999/xlink" x="0px" y="0px"
	 viewBox="0 0 1460.4 347.9" style="enable-background:new 0 0 1460.4 347.9;" xml:space="preserve">
<style type="text/css">
	.st0{fill:#1A6000;}
	.st1{fill:#144400;}
	.st2{fill:#0CA6BF;}
	.st3{fill:#007E93;}
	.st4{fill:#EA8B18;}
	.st5{fill:#C66402;}
	.st6{fill:#239B02;}
	.st7{fill:#34B515;}
	.st8{fill:#765B99;}
	.st9{fill:#674887;}
	.st10{fill:#1B1E1D;}
</style>
<path class="st0" d="M50.7,219.8c16.6,42.4,58.2,73.3,107.2,73.3s90.6-30.9,107.2-73.3H50.7z"/>
<path class="st1" d="M157.9,219.8v73.3l0,0c49,0,90.6-30.9,107.2-73.3H157.9z"/>
<path class="st2" d="M164.8,223.3c0,3.5-5.4,6.6-6.9,6.6l0,0c-1.5,0-6.9-3.1-6.9-6.6l3.9-84.5c0-3.5,1.5-6.6,3.1-6.6l0,0
	c1.5,0,3.1,3.1,3.1,6.6L164.8,223.3z"/>
<path class="st3" d="M157.9,132.3L157.9,132.3c1.5,0,3.1,3.1,3.1,6.6l3.9,84.5c0,3.5-5.4,6.6-6.9,6.6l0,0"/>
<path class="st4" d="M169.5,125.7c0,2.7-8.9,5-11.6,5l0,0c-2.7,0-11.6-2.3-11.6-5l6.6-65.9c0-2.7,2.3-5,5-5l0,0c2.7,0,5,2.3,5,5
	L169.5,125.7z"/>
<path class="st5" d="M157.9,54.8L157.9,54.8c2.7,0,5,2.3,5,5l6.6,65.9c0,2.7-8.9,5-11.6,5l0,0"/>
<path class="st4" d="M139.8,134.2c2.3-1.5,8.9,5,10.4,7.7l0,0c1.5,2.3,3.9,11.2,1.2,12.7l-60.5,27c-2.3,1.5-5.8,0.4-6.9-1.9l0,0
	c-1.5-2.3-0.4-5.8,1.9-6.9L139.8,134.2z"/>
<path class="st5" d="M83.9,179.3L83.9,179.3c-1.5-2.3-0.4-5.8,1.9-6.9l54.4-38.2c2.3-1.5,8.9,5,10.4,7.7l0,0"/>
<path class="st4" d="M176,134.2c-2.3-1.5-8.9,5-10.4,7.7l0,0c-1.5,2.3-3.9,11.2-1.2,12.7l60.5,27c2.3,1.5,5.8,0.4,6.9-1.9l0,0
	c1.5-2.3,0.4-5.8-1.9-6.9L176,134.2z"/>
<path class="st5" d="M165.6,141.6L165.6,141.6c-1.5,2.3-3.9,11.2-1.2,12.7l60.5,27c2.3,1.5,5.8,0.4,6.9-1.9l0,0"/>
<path class="st6" d="M122,227.2c-5.4-13.1-5.4-30.5,1.2-38.2l0,0l0,0l0,0l0,0c10,1.2,22,13.9,27,27c5.4,13.1,2.3,22.4-4.2,30.1l0,0
	l0,0l0,0l0,0C135.9,245.3,127,240.3,122,227.2z"/>
<path class="st7" d="M145.9,246.1L145.9,246.1C145.9,246.5,145.9,246.5,145.9,246.1C145.9,246.5,145.9,246.5,145.9,246.1
	L145.9,246.1c-10-1.2-18.9-5.8-23.9-18.9c-5.4-13.1-5.4-30.5,1.2-38.2l0,0l0,0l0,0l0,0"/>
<path class="st6" d="M127.8,248c-8.1-3.5-15.8-10.8-16.2-17l0,0l0,0l0,0l0,0c5-3.9,15.4-3.5,23.5,0s10.8,8.9,11.2,15l0,0l0,0l0,0
	l0,0C141.3,249.5,135.5,251.5,127.8,248z"/>
<path class="st7" d="M146.3,245.7L146.3,245.7L146.3,245.7L146.3,245.7L146.3,245.7c-5,3.9-10.8,5.8-18.5,2.3
	c-8.1-3.5-15.8-10.8-16.2-17l0,0l0,0l0,0l0,0"/>
<path class="st6" d="M193.8,227.2c5.4-13.1,5.4-30.5-1.2-38.2l0,0l0,0l0,0l0,0c-10,1.2-22,13.9-27,27c-5.4,13.1-2.3,22.4,4.2,30.1
	l0,0l0,0l0,0l0,0C179.9,245.3,188.8,240.3,193.8,227.2z"/>
<path class="st7" d="M169.9,246.1L169.9,246.1C169.9,246.5,169.9,246.5,169.9,246.1C169.9,246.5,169.9,246.5,169.9,246.1
	L169.9,246.1c10-1.2,18.9-5.8,23.9-18.9c5.4-13.1,5.4-30.5-1.2-38.2l0,0l0,0l0,0l0,0"/>
<path class="st6" d="M188,248c8.1-3.5,15.8-10.8,16.2-17l0,0l0,0l0,0l0,0c-5-3.9-15.4-3.5-23.5,0s-10.8,8.9-11.2,15l0,0l0,0l0,0l0,0
	C174.5,249.5,180.3,251.5,188,248z"/>
<path class="st7" d="M169.5,245.7L169.5,245.7L169.5,245.7L169.5,245.7L169.5,245.7c5,3.9,10.8,5.8,18.5,2.3
	c8.1-3.5,15.8-10.8,16.2-17l0,0l0,0l0,0l0,0"/>
<circle class="st8" cx="157.9" cy="138.1" r="10.4"/>
<path class="st9" d="M165.2,131.1c3.9,3.9,3.9,10.4,0,14.7c-3.9,3.9-10.4,3.9-14.7,0"/>
<g>
	<path class="st10" d="M517.5,136.5v4.2c-3.2,1.5-6.7,4.4-10.3,8.7c-3.6,4.3-7.6,10.7-12,19.2l-37.8,75h-14.1l-49.1-90.9
		c-2.4-4.5-4.6-7.6-6.7-9.2c-2.1-1.7-3.9-2.5-5.5-2.5v-4.4c4.3,0.4,8.9,0.7,13.5,0.9c4.7,0.2,9.8,0.3,15.4,0.3
		c7.1,0,14.9-0.1,23.2-0.4c8.3-0.3,16-0.6,23-0.8v4.4c-3.5,0-6.7,0.1-9.7,0.4c-2.9,0.3-5,0.9-6.3,2c-1.3,1-1.3,2.9,0,5.6l31.7,60.9
		l-9.9,13l17.6-35.3c5.9-11.6,9.1-20.8,9.8-27.5c0.6-6.7-0.6-11.6-3.7-14.6c-3.1-3-7.4-4.6-13-4.7v-4.2c5.3,0.1,10,0.3,14.2,0.4
		c4.1,0.1,8.6,0.2,13.3,0.2c2.8,0,5.7-0.1,8.6-0.2C512.9,136.8,515.4,136.6,517.5,136.5z M475.7,202.8v60.3c0,5,0.4,8.8,1.2,11.3
		c0.8,2.5,2.2,4.2,4.3,5s5.2,1.4,9.5,1.7v4.2c-4.1-0.3-9.5-0.5-16.2-0.5c-6.7-0.1-13.4-0.1-19.9-0.1c-7.1,0-14,0-20.7,0.1
		c-6.7,0.1-11.9,0.2-15.6,0.5v-4.2c4.3-0.3,7.6-0.8,9.7-1.7s3.5-2.5,4.2-5c0.7-2.5,1.1-6.3,1.1-11.3v-43l22.9,13L475.7,202.8z"/>
	<path class="st10" d="M573.1,174.1v91.8c0,5.9,0.9,9.9,2.6,12c1.7,2.1,4.8,3.1,9.1,3.1v4.4c-2.8-0.1-7-0.3-12.6-0.5
		c-5.6-0.2-11.3-0.3-17.2-0.3c-5.9,0-11.8,0.1-17.9,0.3c-6,0.2-10.6,0.4-13.6,0.5V281c4.3,0,7.4-1,9.1-3.1c1.7-2.1,2.6-6.1,2.6-12
		v-66.6c0-6.3-0.8-11-2.5-14c-1.7-3-4.8-4.5-9.2-4.5v-4.4c4.5,0.4,8.8,0.6,13,0.6c7,0,13.5-0.2,19.6-0.7
		C562.3,175.8,567.9,175.1,573.1,174.1z M553,121.2c7.3,0,12.9,1.5,16.9,4.5c4,3,6,7.5,6,13.5c0,6-2,10.5-6,13.5
		c-4,3-9.6,4.5-16.9,4.5c-7.3,0-12.9-1.5-16.9-4.5c-4-3-6-7.5-6-13.5c0-6,2-10.5,6-13.5C540,122.7,545.7,121.2,553,121.2z"/>
	<path class="st10" d="M648.9,173.4c12.3,0,22,3.6,29.1,10.8c7.1,7.2,10.6,19.3,10.6,36.2h-65.7l-0.4-4H658c0.1-6.9-0.1-13.2-0.8-19
		c-0.7-5.8-1.8-10.5-3.4-14c-1.5-3.5-3.6-5.2-6.3-5.2c-3.8,0-6.9,3-9.2,8.9c-2.4,6-3.9,16.1-4.6,30.6l0.8,1.7
		c-0.1,1.4-0.2,2.8-0.2,4.2c0,1.4,0,2.9,0,4.4c0,9.8,1.2,17.4,3.7,22.9c2.4,5.5,5.5,9.2,9.2,11.3c3.7,2.1,7.5,3.1,11.2,3.1
		c2,0,4.3-0.3,7-0.8c2.7-0.6,5.7-1.9,8.9-3.9c3.2-2,6.4-5.1,9.4-9.3l3.6,1.3c-1.7,5.6-4.4,11.2-8.1,16.7
		c-3.7,5.5-8.5,10.1-14.4,13.7s-13,5.4-21.4,5.4c-9,0-17.1-1.8-24.5-5.5c-7.4-3.6-13.2-9.7-17.5-18.1c-4.3-8.4-6.5-19.7-6.5-33.8
		c0-13.4,2.4-24.4,7.1-32.9c4.8-8.5,11.2-14.7,19.4-18.7C629.7,175.4,638.8,173.4,648.9,173.4z"/>
	<path class="st10" d="M747.4,121.2v144.7c0,5.9,0.9,9.9,2.6,12c1.7,2.1,4.8,3.1,9.1,3.1v4.4c-2.8-0.1-7-0.3-12.6-0.5
		c-5.6-0.2-11.3-0.3-17.2-0.3c-5.9,0-11.8,0.1-17.8,0.3c-6,0.2-10.6,0.4-13.7,0.5V281c4.3,0,7.4-1,9.1-3.1c1.8-2.1,2.6-6.1,2.6-12
		V146.4c0-6.3-0.8-11-2.5-14c-1.7-3-4.8-4.5-9.2-4.5v-4.4c4.5,0.4,8.8,0.6,13,0.6c7,0,13.5-0.2,19.6-0.7
		C736.6,122.9,742.2,122.1,747.4,121.2z"/>
	<path class="st10" d="M814,173.4c6.2,0,11.3,0.7,15.5,2.2c4.2,1.5,7.9,3.8,11.1,7l-2.3,2.3c-1.8-1.5-3.9-2.7-6.1-3.5
		c-2.2-0.8-4.3-1.2-6.3-1.2c-6.4,0-11.3,4.1-14.5,12.4c-3.2,8.3-4.8,20.9-4.8,38c0,12.3,0.6,21.9,1.9,28.7c1.3,6.8,3,11.5,5.1,14.1
		c2.2,2.6,4.5,3.9,7,3.9c3.9,0,7.4-1.4,10.5-4.3c3.1-2.9,4.6-6.5,4.6-10.8v10.3c-2.8,5.3-6.2,9.3-10.3,11.9
		c-4.1,2.6-9.2,3.9-15.3,3.9c-8,0-15.2-2-21.7-6s-11.7-10.3-15.4-18.8c-3.8-8.5-5.7-19.7-5.7-33.4c0-12.7,1.9-23.3,5.8-31.6
		c3.8-8.3,9.3-14.6,16.3-18.8C796.4,175.5,804.6,173.4,814,173.4z M873.6,121.2v141.1c0,6.3,0.9,11,2.6,14c1.7,3,4.8,4.5,9.1,4.5
		v4.4c-4.3-0.4-8.7-0.6-13-0.6c-7,0-13.5,0.2-19.5,0.6c-6,0.4-11.7,1.2-17,2.3V146.4c0-6.3-0.8-11-2.5-14c-1.7-3-4.8-4.5-9.2-4.5
		v-4.4c4.5,0.4,8.8,0.6,13,0.6c7,0,13.5-0.2,19.6-0.7C862.8,122.9,868.4,122.1,873.6,121.2z"/>
	<path class="st10" d="M1132.3,136.7v4.2c-4.2,0.1-7.4,0.7-9.6,1.6c-2.2,0.9-3.6,2.6-4.3,5c-0.7,2.5-1,6.3-1,11.4v104.2
		c0,5,0.4,8.8,1.2,11.3c0.8,2.5,2.2,4.2,4.3,5c2.1,0.8,5.2,1.4,9.4,1.7v4.2c-4.3-0.3-9.9-0.5-16.6-0.5c-6.7-0.1-13.6-0.1-20.6-0.1
		c-7.6,0-14.7,0-21.3,0.1c-6.7,0.1-12,0.2-16.1,0.5v-4.2c4.8-0.3,8.4-0.8,10.8-1.7c2.4-0.8,4.1-2.5,4.9-5c0.8-2.5,1.3-6.3,1.3-11.3
		V150.8l2.1-0.4l-52.7,134.8h-3.4l-59.2-134.8v93.9c0,9.4,0.4,16.6,1.2,21.5c0.8,5,2.7,8.5,5.7,10.7c3,2.2,7.8,3.7,14.4,4.7v4.2
		c-2.8-0.3-6.4-0.5-10.9-0.5c-4.5-0.1-8.7-0.1-12.6-0.1c-3.1,0-6.2,0-9.5,0.1c-3.2,0.1-5.9,0.2-8,0.5v-4.2c4.3-1,7.6-2.5,9.7-4.5
		c2.1-2,3.5-5.3,4.2-9.8c0.7-4.5,1-10.6,1-18.5V159c0-5.2-0.4-9-1-11.4c-0.7-2.4-2.1-4.1-4.3-5c-2.2-0.9-5.4-1.4-9.6-1.6v-4.2
		c2.1,0.1,4.8,0.3,8,0.4c3.2,0.1,6.4,0.2,9.5,0.2c8.1,0,15.9-0.1,23.3-0.2c7.4-0.1,14.1-0.3,20.2-0.4l41.6,93.7l-6.3,6.9l38.8-100
		c2.8,0,5.8,0,9,0c3.2,0,6.3,0,9.2,0c7,0,13.9-0.1,20.6-0.2C1122.5,137,1128,136.8,1132.3,136.7z"/>
	<path class="st10" d="M1169.5,286.8c-6.6,0-12-1.3-16.2-3.8c-4.2-2.5-7.2-5.8-9.1-9.9c-1.9-4.1-2.8-8.3-2.8-12.8
		c0-5.9,1.3-10.7,4-14.4c2.7-3.7,6.1-6.7,10.4-9c4.3-2.3,8.8-4.2,13.5-5.8c4.8-1.5,9.3-3,13.5-4.5c4.3-1.5,7.7-3.2,10.4-5.2
		c2.7-2,4-4.7,4-7.9v-18.7c0-2.2-0.4-4.7-1.2-7.4c-0.8-2.7-2.2-5-4.3-6.9c-2.1-2-5.2-2.9-9.4-2.9c-2.2,0-4.4,0.3-6.4,0.9
		c-2,0.6-3.8,1.5-5.4,2.6c4.9,1.8,8.5,4.4,10.7,7.7c2.2,3.3,3.4,6.9,3.4,10.8c0,5.6-2,10-5.9,13.2c-3.9,3.2-8.5,4.8-13.9,4.8
		c-5.6,0-9.9-1.7-13-5.2c-3.1-3.5-4.6-7.8-4.6-13c0-4.3,1.1-8,3.3-11c2.2-3,5.4-5.8,9.8-8.3c4.2-2.4,9.2-4.1,15.1-5.1
		s12-1.6,18.5-1.6c6.9,0,13.2,0.7,19.1,2c5.9,1.3,10.9,4.2,15.1,8.5c2.9,3.1,4.8,6.9,5.7,11.6c0.8,4.6,1.3,10.6,1.3,17.9v56.3
		c0,3.5,0.2,5.9,0.7,7.1c0.5,1.3,1.4,1.9,2.6,1.9c1.1,0,2.2-0.3,3.3-1c1.1-0.7,2.1-1.4,3-2.1l2.1,3.6c-3.1,2.7-6.9,4.6-11.4,5.9
		c-4.6,1.3-9.3,1.9-14.4,1.9c-6,0-10.7-0.7-14-2.2c-3.3-1.5-5.6-3.4-6.9-5.9c-1.3-2.4-2.1-5.1-2.2-7.9c-2.9,4.6-6.6,8.4-11,11.4
		C1182.4,285.3,1176.7,286.8,1169.5,286.8z M1189.5,270c1.5,0,2.9-0.2,4.1-0.7c1.2-0.5,2.4-1.4,3.7-2.8v-44.3
		c-1,1.8-2.3,3.6-3.9,5.4c-1.6,1.8-3.3,3.5-4.9,5.4c-1.7,1.8-3.3,3.8-4.7,5.9c-1.5,2.1-2.7,4.5-3.6,7.2c-0.9,2.7-1.4,5.9-1.4,9.6
		c0,5.3,1,9.1,3,11.2C1183.8,269,1186.4,270,1189.5,270z"/>
	<path class="st10" d="M1301.2,142.4v34h20.6v4.2h-20.6v87.2c0,2.7,0.5,4.6,1.5,5.8c1,1.2,2.6,1.8,4.8,1.8c1.5,0,3.4-0.5,5.5-1.4
		c2.1-0.9,4.1-2.5,5.9-4.7l3.2,2.5c-2.9,5-6.8,9.1-11.7,12.1s-10.9,4.5-18.2,4.5c-4.6,0-8.8-0.6-12.5-1.8c-3.7-1.2-6.8-3-9.1-5.4
		c-3.1-3.1-5-6.9-5.9-11.4c-0.8-4.5-1.3-10.5-1.3-17.7v-71.4h-16v-4.2h16v-24.8c7.4,0,14.2-0.7,20.3-2.2
		C1289.7,147.9,1295.6,145.6,1301.2,142.4z"/>
	<path class="st10" d="M1381,173.4c12.3,0,22,3.6,29.1,10.8c7.1,7.2,10.6,19.3,10.6,36.2h-65.7l-0.4-4h35.5c0.1-6.9-0.1-13.2-0.8-19
		c-0.7-5.8-1.8-10.5-3.4-14c-1.5-3.5-3.6-5.2-6.3-5.2c-3.8,0-6.9,3-9.2,8.9c-2.4,6-3.9,16.1-4.6,30.6l0.8,1.7
		c-0.1,1.4-0.2,2.8-0.2,4.2c0,1.4,0,2.9,0,4.4c0,9.8,1.2,17.4,3.7,22.9c2.4,5.5,5.5,9.2,9.2,11.3c3.7,2.1,7.5,3.1,11.2,3.1
		c2,0,4.3-0.3,7-0.8c2.7-0.6,5.7-1.9,8.9-3.9c3.2-2,6.4-5.1,9.5-9.3l3.6,1.3c-1.7,5.6-4.4,11.2-8.1,16.7
		c-3.7,5.5-8.5,10.1-14.4,13.7c-5.9,3.6-13,5.4-21.4,5.4c-9,0-17.1-1.8-24.5-5.5c-7.3-3.6-13.2-9.7-17.5-18.1
		c-4.3-8.4-6.5-19.7-6.5-33.8c0-13.4,2.4-24.4,7.1-32.9c4.8-8.5,11.2-14.7,19.4-18.7C1361.8,175.4,1370.9,173.4,1381,173.4z"/>
</g>
</svg>
